<svg width="133" height="68" viewBox="0 0 133 68" fill="none" xmlns="http://www.w3.org/2000/svg">
<path d="M38.08 47.68C38 47.68 37.92 47.6667 37.84 47.64C37.76 47.64 37.68 47.6267 37.6 47.6C36.6667 47.3067 36 46.7333 35.6 45.88C35.2 45.0267 35 44 35 42.8C35 41.5467 35.1733 40.16 35.52 38.64C35.8667 37.12 36.32 35.5733 36.88 34C37.44 32.4 38.0267 30.88 38.64 29.44C39.28 27.9733 39.8933 26.6667 40.48 25.52C41.0667 24.3467 41.56 23.4267 41.96 22.76C41.5333 23.1333 40.8933 23.7467 40.04 24.6C39.1867 25.4267 38.24 26.4133 37.2 27.56C36.16 28.7067 35.1733 29.9333 34.24 31.24C33.3067 32.5467 32.5467 33.8667 31.96 35.2C31.8267 35.5467 31.6267 36.12 31.36 36.92C31.0933 37.6933 30.8533 38.5333 30.64 39.44C30.4533 40.3467 30.36 41.1467 30.36 41.84C30.36 42.3733 30.44 42.7867 30.6 43.08C30.6 43.1067 30.6 43.1333 30.6 43.16C30.6267 43.16 30.64 43.1733 30.64 43.2C30.64 43.4667 30.32 43.6 29.68 43.6C28.4533 43.6 27.5867 43.24 27.08 42.52C26.6 41.7733 26.36 40.8267 26.36 39.68C26.36 38.32 26.6133 36.7867 27.12 35.08C27.6533 33.3467 28.2533 31.6933 28.92 30.12C29.2933 29.24 29.72 28.3467 30.2 27.44C30.68 26.5067 31.12 25.68 31.52 24.96C31.9467 24.2133 32.2533 23.6933 32.44 23.4C31.5867 24.1733 30.6133 25.1333 29.52 26.28C28.4533 27.4 27.3733 28.6533 26.28 30.04C25.1867 31.4 24.1733 32.8133 23.24 34.28C22.3067 35.72 21.56 37.16 21 38.6C20.44 40.0133 20.16 41.3467 20.16 42.6C20.16 43.1867 20.3067 43.6533 20.6 44C20.6533 44.1067 20.68 44.16 20.68 44.16C20.68 44.24 20.5467 44.28 20.28 44.28C18.9733 44.28 17.9867 44.0533 17.32 43.6C16.68 43.12 16.36 42.3467 16.36 41.28C16.36 41.1467 16.36 41.0133 16.36 40.88C16.3867 40.7467 16.4133 40.6 16.44 40.44C16.52 39.7733 16.7067 38.8933 17 37.8C17.32 36.68 17.7333 35.44 18.24 34.08C18.7733 32.6933 19.3733 31.28 20.04 29.84C20.7333 28.3733 21.48 26.9733 22.28 25.64C22.36 25.5067 22.56 25.2 22.88 24.72C23.2267 24.24 23.5467 23.7333 23.84 23.2C24.16 22.6667 24.32 22.28 24.32 22.04C24.32 21.8 24.16 21.7467 23.84 21.88C23.3867 22.04 22.8533 22.3867 22.24 22.92C21.6267 23.4533 20.96 24.0667 20.24 24.76C19.52 25.4533 18.76 26.1333 17.96 26.8C17.1867 27.44 16.3867 27.9867 15.56 28.44C14.76 28.8667 13.9733 29.08 13.2 29.08C13.0133 29.08 12.8133 29.0667 12.6 29.04C12.4133 29.0133 12.2133 28.96 12 28.88C11.5467 28.72 11.32 28.32 11.32 27.68C11.32 27.0667 11.4933 26.3467 11.84 25.52C12.2133 24.6667 12.6667 23.8533 13.2 23.08C13.3333 22.8667 13.4933 22.72 13.68 22.64C13.8667 22.5333 14.0133 22.48 14.12 22.48C14.3333 22.48 14.44 22.5733 14.44 22.76C14.44 22.84 14.4 22.9467 14.32 23.08C14.2933 23.1867 14.2533 23.28 14.2 23.36C14.1733 23.44 14.16 23.5067 14.16 23.56C14.16 23.7467 14.2533 23.88 14.44 23.96C14.6267 24.0133 14.8267 24.04 15.04 24.04C15.6 24.04 16.3333 23.8533 17.24 23.48C18.1467 23.1067 19.12 22.6533 20.16 22.12C21.2267 21.56 22.28 21.0133 23.32 20.48C24.3867 19.9467 25.3733 19.5333 26.28 19.24C27.1867 18.92 27.9333 18.8133 28.52 18.92C28.9733 19.0267 29.3733 19.3467 29.72 19.88C30.0933 20.4133 30.3333 20.88 30.44 21.28C30.4933 21.44 30.4133 21.7067 30.2 22.08C29.9867 22.4533 29.7067 22.8667 29.36 23.32C29.04 23.7733 28.72 24.2 28.4 24.6C28.08 25 27.84 25.3067 27.68 25.52C27.3333 25.9467 26.9333 26.4667 26.48 27.08C26.0267 27.6933 25.5733 28.3067 25.12 28.92C24.6933 29.5067 24.3467 30 24.08 30.4C23.92 30.6667 23.84 30.8933 23.84 31.08C23.8667 31.24 23.9333 31.2533 24.04 31.12C24.6267 30.3467 25.32 29.4667 26.12 28.48C26.9467 27.4667 27.7733 26.4667 28.6 25.48C29.4533 24.4667 30.2267 23.5867 30.92 22.84C31.64 22.0667 32.1867 21.5467 32.56 21.28C32.6933 21.1733 32.9333 21.04 33.28 20.88C33.6533 20.6933 34.0933 20.6 34.6 20.6C34.8933 20.6 35.1867 20.64 35.48 20.72C35.7733 20.8 36.0933 20.9467 36.44 21.16C37 21.5067 37.28 22.0133 37.28 22.68C37.28 23.5333 36.8667 24.6267 36.04 25.96C35.2133 27.2933 34.24 28.8267 33.12 30.56C33.6533 29.8667 34.3067 29.0667 35.08 28.16C35.88 27.2267 36.6933 26.2667 37.52 25.28C38.3733 24.2667 39.1733 23.3333 39.92 22.48C40.6933 21.6 41.3333 20.88 41.84 20.32C42.3733 19.7333 42.6933 19.4 42.8 19.32C43.2533 19 43.6133 18.84 43.88 18.84C44.0933 18.84 44.3467 18.9067 44.64 19.04C44.9333 19.1733 45.3067 19.36 45.76 19.6C46.3467 19.8933 46.76 20.2667 47 20.72C47.24 21.1467 47.36 21.6267 47.36 22.16C47.36 22.96 47.1733 23.7867 46.8 24.64C46.4267 25.4667 46.0667 26.2 45.72 26.84C45.4533 27.2933 45.0533 28.0667 44.52 29.16C44.0133 30.2533 43.4533 31.52 42.84 32.96C42.2267 34.4 41.6267 35.8933 41.04 37.44C40.48 38.9867 40.0133 40.4667 39.64 41.88C39.2667 43.2667 39.08 44.4533 39.08 45.44C39.08 45.7867 39.1067 46.1067 39.16 46.4C39.2133 46.6933 39.3067 46.9467 39.44 47.16C39.0933 47.5067 38.64 47.68 38.08 47.68ZM50.91 44.6C48.9633 44.6 47.55 44.16 46.67 43.28C45.8167 42.4 45.39 41.24 45.39 39.8C45.39 38.7067 45.6167 37.5067 46.07 36.2C46.4167 35.1333 46.8833 34.0533 47.47 32.96C48.0567 31.84 48.7367 30.8133 49.51 29.88C50.2833 28.92 51.1367 28.16 52.07 27.6C53.0033 27.0133 53.99 26.72 55.03 26.72C56.3633 26.72 57.4433 26.9333 58.27 27.36C59.1233 27.76 59.55 28.4267 59.55 29.36C59.55 30.0533 59.27 30.92 58.71 31.96C57.9633 33.4 56.87 34.5867 55.43 35.52C53.99 36.4533 52.3767 36.9867 50.59 37.12C50.19 38.2133 49.95 39.1067 49.87 39.8C49.8433 39.9333 49.83 40.0667 49.83 40.2C49.83 40.3067 49.83 40.4267 49.83 40.56C49.83 41.44 50.03 42.08 50.43 42.48C50.83 42.8533 51.3233 43.04 51.91 43.04C53.0033 43.04 53.9633 42.76 54.79 42.2C55.6167 41.64 56.3367 40.9333 56.95 40.08C57.59 39.2267 58.1367 38.3733 58.59 37.52C58.8567 37.04 59.0833 36.6 59.27 36.2C59.4567 35.7733 59.6033 35.4667 59.71 35.28C59.8433 35.0667 59.99 34.96 60.15 34.96C60.31 34.96 60.4567 35.0533 60.59 35.24C60.7233 35.4 60.7367 35.5867 60.63 35.8C60.2833 36.4933 59.8033 37.4133 59.19 38.56C58.5767 39.7067 57.8833 40.72 57.11 41.6C56.2567 42.6133 55.3367 43.3733 54.35 43.88C53.39 44.36 52.2433 44.6 50.91 44.6ZM51.11 35.96C52.31 35.5067 53.3633 34.6933 54.27 33.52C55.2033 32.3467 55.83 31.0533 56.15 29.64C56.1767 29.5067 56.19 29.3867 56.19 29.28C56.2167 29.1733 56.23 29.0667 56.23 28.96C56.23 28.4267 56.07 28.16 55.75 28.16C55.4833 28.16 55.2033 28.3467 54.91 28.72C54.4833 29.2267 54.03 29.92 53.55 30.8C53.07 31.6533 52.6433 32.4933 52.27 33.32C51.8967 34.1467 51.6167 34.7733 51.43 35.2L51.11 35.96ZM63.4694 44.36C61.8427 44.36 60.6027 44.0667 59.7494 43.48C58.896 42.8933 58.4694 41.88 58.4694 40.44C58.4694 39.5067 58.6294 38.4667 58.9494 37.32C59.2694 36.1733 59.6694 35.0267 60.1494 33.88C60.6294 32.7067 61.136 31.6 61.6694 30.56C62.2027 29.52 62.696 28.6267 63.1494 27.88C63.6027 27.1067 63.936 26.56 64.1494 26.24C64.6827 25.4933 65.2694 24.7333 65.9094 23.96C66.576 23.1867 67.3094 22.5333 68.1094 22C68.936 21.4667 69.8294 21.2 70.7894 21.2C71.296 21.2 71.816 21.2933 72.3494 21.48C72.9627 21.72 73.2694 21.96 73.2694 22.2C73.2694 22.36 73.136 22.44 72.8694 22.44C72.7627 22.44 72.6027 22.5067 72.3894 22.64C72.2027 22.7467 72.0294 22.88 71.8694 23.04C71.3894 23.52 70.816 24.2 70.1494 25.08C69.5094 25.96 68.8294 26.9333 68.1094 28C67.416 29.0667 66.7494 30.1733 66.1094 31.32C65.496 32.44 64.976 33.5067 64.5494 34.52C65.7227 32.8933 66.7627 31.48 67.6694 30.28C68.6027 29.0533 69.5627 28.0667 70.5494 27.32C70.8427 27.1067 71.216 27 71.6694 27C72.4427 27 73.136 27.2 73.7494 27.6C74.1227 27.8667 74.3094 28.3867 74.3094 29.16C74.3094 29.8267 74.1894 30.6267 73.9494 31.56C73.7094 32.4933 73.3894 33.4667 72.9894 34.48C72.616 35.4667 72.2027 36.4267 71.7494 37.36L71.0294 38.8C70.9494 39.04 70.9094 39.2933 70.9094 39.56C70.9094 39.9067 70.9894 40.2133 71.1494 40.48C71.3094 40.7467 71.536 40.88 71.8294 40.88C72.2294 40.88 72.6827 40.5333 73.1894 39.84C73.5627 39.3867 73.9094 38.8667 74.2294 38.28C74.576 37.6667 74.8827 37.0933 75.1494 36.56C75.416 36.0267 75.616 35.64 75.7494 35.4C75.8294 35.2133 75.976 35.12 76.1894 35.12C76.376 35.12 76.536 35.1867 76.6694 35.32C76.8027 35.4533 76.816 35.6267 76.7094 35.84C76.4694 36.2933 76.1627 36.8667 75.7894 37.56C75.4427 38.2533 75.0427 38.9467 74.5894 39.64C74.1627 40.3067 73.696 40.8533 73.1894 41.28C72.7094 41.68 72.2427 41.88 71.7894 41.88C71.3894 41.88 71.0294 41.76 70.7094 41.52C70.416 41.2533 70.2027 40.9333 70.0694 40.56C69.376 41.6533 68.5227 42.56 67.5094 43.28C66.496 44 65.1494 44.36 63.4694 44.36ZM62.7894 42.72C63.1627 42.72 63.6294 42.3867 64.1894 41.72C64.7494 41.0267 65.3227 40.16 65.9094 39.12C66.496 38.0533 67.0427 36.9333 67.5494 35.76C68.056 34.5867 68.4427 33.48 68.7094 32.44C69.0027 31.4 69.1227 30.5867 69.0694 30C68.7227 30.3733 68.3227 30.84 67.8694 31.4C67.4427 31.9333 67.0027 32.52 66.5494 33.16C66.496 33.24 66.3094 33.5333 65.9894 34.04C65.696 34.52 65.336 35.1333 64.9094 35.88C64.4827 36.6 64.0694 37.36 63.6694 38.16C63.2694 38.96 62.936 39.7067 62.6694 40.4C62.4027 41.0933 62.2694 41.6533 62.2694 42.08C62.2694 42.5067 62.4427 42.72 62.7894 42.72ZM77.7231 44.24C76.4165 44.24 75.4965 43.9467 74.9631 43.36C74.4565 42.7467 74.2031 41.9867 74.2031 41.08C74.2031 40.12 74.3765 39.0933 74.7231 38C75.0965 36.88 75.5098 35.8533 75.9631 34.92C76.4431 33.96 76.8165 33.2267 77.0831 32.72C78.1765 30.6933 79.4298 29.2133 80.8431 28.28C82.2831 27.3467 83.8698 26.88 85.6031 26.88C86.2165 26.88 86.9365 26.9067 87.7631 26.96C88.5898 27.0133 89.4298 27.04 90.2831 27.04C90.7098 27.04 91.1231 27.0267 91.5231 27C91.9231 26.9733 92.3098 26.96 92.6831 26.96H92.8431C93.2965 26.96 93.5231 27.04 93.5231 27.2C93.5231 27.3067 93.3631 27.4267 93.0431 27.56C92.6965 27.6933 92.2831 28.1467 91.8031 28.92C91.3231 29.6667 90.8298 30.5733 90.3231 31.64C89.8165 32.7067 89.3365 33.7867 88.8831 34.88C88.6431 35.4933 88.3231 36.32 87.9231 37.36C87.5231 38.3733 87.2298 39.4133 87.0431 40.48C87.0165 40.6667 86.9898 40.84 86.9631 41C86.9631 41.1333 86.9631 41.2667 86.9631 41.4C86.9631 42.0667 87.1365 42.4 87.4831 42.4C87.9098 42.4 88.3498 42.1733 88.8031 41.72C89.2565 41.2667 89.6965 40.72 90.1231 40.08C90.4965 39.52 90.8698 38.8933 91.2431 38.2C91.6165 37.5067 91.9498 36.8667 92.2431 36.28C92.5365 35.6667 92.7498 35.24 92.8831 35C92.9631 34.84 93.0698 34.76 93.2031 34.76C93.3631 34.76 93.5098 34.88 93.6431 35.12C93.7765 35.3333 93.7898 35.5467 93.6831 35.76C93.1765 36.7467 92.6298 37.8 92.0431 38.92C91.4565 40.04 90.8165 41.0533 90.1231 41.96C88.9498 43.48 87.5898 44.24 86.0431 44.24C84.8698 44.24 84.0031 43.88 83.4431 43.16C82.9098 42.44 82.6431 41.5733 82.6431 40.56C82.6431 40.1067 82.6831 39.6667 82.7631 39.24C82.4698 39.72 82.1098 40.3467 81.6831 41.12C81.2565 41.8667 80.7631 42.5467 80.2031 43.16C79.6698 43.7733 79.0698 44.12 78.4031 44.2C78.2965 44.2 78.1898 44.2 78.0831 44.2C77.9765 44.2267 77.8565 44.24 77.7231 44.24ZM79.2031 42.2C79.4698 42.2 79.8165 41.96 80.2431 41.48C80.6965 41 81.1498 40.4 81.6031 39.68C82.0831 38.9333 82.4965 38.1867 82.8431 37.44C82.9231 37.2267 83.1098 36.7733 83.4031 36.08C83.7231 35.36 84.0698 34.5333 84.4431 33.6C84.8431 32.64 85.2431 31.68 85.6431 30.72C86.0431 29.76 86.3898 28.92 86.6831 28.2C86.7098 28.12 86.7231 28.0267 86.7231 27.92C86.7231 27.76 86.6431 27.68 86.4831 27.68C86.3231 27.68 86.1365 27.7467 85.9231 27.88C85.7098 27.9867 85.5098 28.1067 85.3231 28.24C84.9765 28.5067 84.5231 29.0667 83.9631 29.92C83.4298 30.7467 82.8565 31.72 82.2431 32.84C81.6565 33.96 81.0965 35.1067 80.5631 36.28C80.0298 37.4267 79.5898 38.48 79.2431 39.44C78.9231 40.3733 78.7631 41.08 78.7631 41.56C78.7631 41.9867 78.9098 42.2 79.2031 42.2ZM108.997 44.32C107.664 44.32 106.757 43.96 106.277 43.24C105.797 42.52 105.557 41.68 105.557 40.72C105.557 40 105.637 39.2933 105.797 38.6C105.957 37.88 106.131 37.2533 106.317 36.72C106.504 36.16 106.624 35.7733 106.677 35.56C106.971 34.68 107.317 33.8 107.717 32.92C108.144 32.04 108.424 31.3067 108.557 30.72C108.237 30.9867 107.811 31.4933 107.277 32.24C106.744 32.96 106.157 33.8 105.517 34.76C104.904 35.72 104.317 36.72 103.757 37.76C103.224 38.7733 102.771 39.7333 102.397 40.64C102.051 41.5467 101.877 42.2933 101.877 42.88C101.877 43.2533 101.957 43.5467 102.117 43.76C101.877 43.84 101.637 43.92 101.397 44C101.157 44.0533 100.917 44.08 100.677 44.08C99.7439 44.08 99.0905 43.8267 98.7172 43.32C98.3705 42.8133 98.1972 42.2 98.1972 41.48C98.1972 40.6 98.3572 39.6667 98.6772 38.68C99.0239 37.6933 99.3305 36.8933 99.5972 36.28C99.8105 35.8 100.077 35.16 100.397 34.36C100.744 33.56 101.091 32.7733 101.437 32C101.811 31.2 102.131 30.5867 102.397 30.16C102.104 30.4267 101.651 30.9333 101.037 31.68C100.451 32.4267 99.7972 33.3067 99.0772 34.32C98.3572 35.3333 97.6639 36.3867 96.9972 37.48C96.3305 38.5467 95.7839 39.56 95.3572 40.52C94.9305 41.48 94.7172 42.28 94.7172 42.92C94.7172 43.3467 94.8105 43.6533 94.9972 43.84C95.0772 43.92 95.1172 43.9867 95.1172 44.04C95.1172 44.1733 94.9705 44.2133 94.6772 44.16C94.0639 44.0533 93.4639 43.9467 92.8772 43.84C92.2905 43.7067 91.7972 43.4533 91.3972 43.08C91.0239 42.68 90.8372 42.0267 90.8372 41.12C90.8372 40.4 91.0239 39.5333 91.3972 38.52C91.7705 37.48 92.2105 36.4133 92.7172 35.32C93.2239 34.2267 93.6639 33.2133 94.0372 32.28C94.1172 32.0667 94.2505 31.7467 94.4372 31.32C94.6239 30.8667 94.8105 30.4 94.9972 29.92C95.2105 29.4133 95.3705 28.9733 95.4772 28.6C95.5839 28.2 95.6105 27.9333 95.5572 27.8C95.5039 27.6933 95.4772 27.6133 95.4772 27.56C95.4772 27.24 95.6905 27.08 96.1172 27.08C96.5439 27.08 96.9705 27.1467 97.3972 27.28C97.8505 27.3867 98.2505 27.5733 98.5972 27.84C98.9705 28.1067 99.2639 28.4267 99.4772 28.8C99.6905 29.1733 99.7972 29.5867 99.7972 30.04C99.7972 30.3333 99.7305 30.68 99.5972 31.08C99.5172 31.32 99.3572 31.6533 99.1172 32.08C98.9039 32.48 98.6905 32.88 98.4772 33.28C98.2905 33.6533 98.1839 33.92 98.1572 34.08C98.5839 33.4667 99.0505 32.7867 99.5572 32.04C100.091 31.2933 100.597 30.5867 101.077 29.92C101.584 29.2267 102.024 28.64 102.397 28.16C102.797 27.6533 103.091 27.3333 103.277 27.2C103.571 26.9867 103.917 26.88 104.317 26.88C104.877 26.88 105.491 27.04 106.157 27.36C106.611 27.5467 106.917 27.8 107.077 28.12C107.264 28.4133 107.357 28.7467 107.357 29.12C107.357 29.6533 107.211 30.2133 106.917 30.8C106.651 31.36 106.397 31.8667 106.157 32.32C106.691 31.5733 107.224 30.8267 107.757 30.08C108.317 29.3333 108.824 28.6667 109.277 28.08C109.757 27.4933 110.144 27.0933 110.437 26.88C110.651 26.72 110.997 26.64 111.477 26.64C112.037 26.64 112.611 26.8133 113.197 27.16C113.784 27.5067 114.077 28.1333 114.077 29.04C114.077 29.3867 114.011 29.7867 113.877 30.24C113.744 30.6933 113.531 31.2 113.237 31.76C112.091 33.9467 111.211 35.92 110.597 37.68C109.984 39.4133 109.677 40.6933 109.677 41.52C109.677 42.1067 109.837 42.4 110.157 42.4C110.531 42.4 110.944 42.16 111.397 41.68C111.877 41.2 112.344 40.6267 112.797 39.96C113.384 39.1067 113.917 38.2 114.397 37.24C114.904 36.28 115.251 35.6133 115.437 35.24C115.517 35.08 115.637 35 115.797 35C115.957 35 116.104 35.0933 116.237 35.28C116.397 35.44 116.424 35.6267 116.317 35.84C116.131 36.2133 115.851 36.7333 115.477 37.4C115.131 38.04 114.731 38.7467 114.277 39.52C113.824 40.2667 113.331 40.9867 112.797 41.68C112.211 42.4267 111.597 43.0533 110.957 43.56C110.317 44.0667 109.664 44.32 108.997 44.32ZM117.933 44.32C116.973 44.32 116.106 44.0533 115.333 43.52C114.559 42.96 114.173 42.0533 114.173 40.8C114.173 39.9733 114.306 39.0133 114.573 37.92C114.866 36.8267 115.226 35.7067 115.653 34.56C116.079 33.3867 116.519 32.3067 116.973 31.32C117.453 30.3067 117.879 29.48 118.253 28.84C118.839 27.9067 119.493 27.3333 120.213 27.12C120.959 26.9067 121.866 26.8 122.933 26.8C123.706 26.8 124.346 26.8933 124.853 27.08C125.359 27.24 125.439 27.4267 125.093 27.64C124.586 27.9867 123.933 28.76 123.133 29.96C122.333 31.16 121.559 32.5067 120.813 34C120.599 34.4267 120.333 35 120.013 35.72C119.693 36.4133 119.373 37.16 119.053 37.96C118.759 38.7333 118.506 39.48 118.293 40.2C118.079 40.8933 117.973 41.4667 117.973 41.92C117.973 42.5867 118.279 42.92 118.893 42.92C119.533 42.92 120.253 42.6133 121.053 42C121.426 41.7067 121.773 41.3733 122.093 41C122.413 40.6267 122.706 40.2533 122.973 39.88C123.506 39.16 123.986 38.3867 124.413 37.56C124.866 36.7067 125.279 35.9067 125.653 35.16C125.733 35 125.839 34.92 125.973 34.92C126.159 34.92 126.319 35.0133 126.453 35.2C126.586 35.3867 126.599 35.5867 126.493 35.8C126.093 36.6 125.599 37.5467 125.013 38.64C124.426 39.7067 123.746 40.6933 122.973 41.6C122.306 42.3733 121.546 43.0267 120.693 43.56C119.866 44.0667 118.946 44.32 117.933 44.32ZM123.653 24.8C123.199 24.8 122.839 24.6533 122.573 24.36C122.306 24.04 122.173 23.6267 122.173 23.12C122.173 22.5067 122.333 21.9467 122.653 21.44C122.973 20.9333 123.373 20.52 123.853 20.2C124.333 19.88 124.826 19.72 125.333 19.72C125.786 19.72 126.146 19.88 126.413 20.2C126.679 20.4933 126.813 20.8667 126.813 21.32C126.813 21.9067 126.653 22.4667 126.333 23C126.013 23.5333 125.613 23.9733 125.133 24.32C124.653 24.64 124.159 24.8 123.653 24.8Z" fill="black"/>
</svg>
